<svg version="1.1" xmlns="http://www.w3.org/2000/svg"
     viewBox="-2438.988694942407 -1678.4640762329102 7936.845189083032 2524.416128540039">
    <desc>Created with Snap</desc>
    <defs></defs>
    <g>
        <rect x="-2438.988694942407" y="-1678.4640762329102" width="7936.845189083032" height="2524.416128540039"
              style="" fill="#fff"></rect>
        <g transform="matrix(21.246,0,0,21.246,-2238.0187,-1477.4941)">
            <g>
                <path d="M78.4,66.5c-5.5,4.8-9.9,15.2-9.9,15.2s-6.9-11.4-12.9-15.3c-9.5-6.1-13.6-6.2-13.6-6.2V65c0,0,7.8,1.2,11.7,4.6   c8.2,7.1,14.8,18.5,14.8,18.5S74.4,75,80.1,70.5C88.1,64.3,95,65,95,65v-4.8C95,60.1,85.1,60.7,78.4,66.5z"
                      style="" fill="#292929"></path>
                <path d="M42,80c-6.4-3.6-17.8-4.3-17.8-4.3s8.7-10.1,10.5-17C37.5,47.9,36.2,44,36.2,44l-4.6,1.6c0,0,1.3,7.7-0.6,12.4   c-4.1,9.9-13,19.8-13,19.8s14.6,1.3,20.7,5.1c8.6,5.4,10.2,12,10.2,12l4.6-1.6C53.5,93.4,49.7,84.4,42,80z"
                      style="" fill="#292929"></path>
                <path d="M35.3,36.8c11.3-0.9,14.6-3.4,14.6-3.4l-3-3.8c0,0-6.9,3.7-12.1,3.4c-10.9-0.6-23.3-5.6-23.3-5.6s3.5,14,1.8,20.9   C10.9,58.2,5,61.8,5,61.8l3,3.8c0,0,7.5-6.5,9.1-15.1c1.3-7.1-1.7-18-1.7-18S28,37.4,35.3,36.8z"
                      style="" fill="#292929"></path>
                <path d="M37.4,17.8c7.3-1.1,16.7-7.4,16.7-7.4s-0.6,13.2,2.4,19.8c4.6,10.2,8,12.5,8,12.5l2.7-4c0,0-5.9-5.2-7.3-10.2   C56.9,18.2,57.7,5,57.7,5s-12.3,7.8-19.5,8.5c-10.2,1-15.6-3.3-15.6-3.3l-2.7,4.1C19.9,14.2,28.6,19.1,37.4,17.8z"
                      style="" fill="#292929"></path>
                <path d="M65,60.5c0,0,3.1-7.2,7.4-10.1c9-6.1,21.9-9.7,21.9-9.7s-11.5-8.9-14.5-15.4c-4.2-9.1-1.9-15.6-1.9-15.6l-4.8-1.2   c0,0-1.9,9.6,2.2,17.4c3.4,6.4,12.5,13.2,12.5,13.2S75,42.9,69.6,47.8c-8.3,7.6-9.4,11.5-9.4,11.5L65,60.5z"
                      style="" fill="#292929"></path>
            </g>
            <desc>Created with Snap</desc>
            <defs></defs>
        </g>
        <g>
            <g transform="matrix(0.512,0,0,-0.512,0,0)">
                <path d="M829 1114L1099 1114L371 354L391 408L395 216L395 0L171 0L171 662L171 1622L395 1622L395 774L387 530L333 568L829 1114ZM885 0L511 548L667 698L1147 0L885 0ZM1565 0L1335 0L1335 1112L1565 1112L1565 0ZM1437 1309Q1379 1309 1335 1346Q1292 1383 1292 1447Q1292 1491 1316 1526Q1341 1562 1379 1583Q1417 1605 1458 1605Q1529 1605 1565 1565Q1601 1525 1601 1467Q1601 1398 1551 1353Q1502 1309 1437 1309ZM1825 544Q1825 709 1885 841Q1945 973 2065 1050Q2185 1128 2365 1128Q2470 1128 2543 1109Q2616 1090 2643 1072L2607 890Q2565 919 2506 933Q2447 948 2363 948Q2288 948 2218 911Q2148 875 2101 795Q2054 715 2049 584Q2045 446 2085 351Q2126 257 2197 208Q2269 160 2357 160Q2440 160 2510 181Q2581 202 2617 224L2661 90Q2610 42 2517 13Q2424 -16 2319 -16Q2160 -16 2050 58Q1940 132 1882 258Q1825 385 1825 544ZM3550 1114L3820 1114L3092 354L3112 408L3116 216L3116 0L2892 0L2892 662L2892 1622L3116 1622L3116 774L3108 530L3054 568L3550 1114ZM3606 0L3232 548L3388 698L3868 0L3606 0ZM4708 0L4476 0L4476 943L4311 943L4311 1072L4476 1114L4476 1212Q4476 1336 4513 1419Q4550 1502 4610 1551Q4671 1600 4742 1621Q4814 1642 4882 1642Q4931 1642 4973 1634Q5015 1627 5031 1622L5031 1444Q5002 1453 4966 1458Q4930 1463 4866 1463Q4797 1463 4752 1410Q4708 1358 4708 1252L4708 1114L4979 1114L4979 943L4708 943L4708 0ZM5520 -16Q5411 -16 5344 18Q5277 52 5242 115Q5207 179 5194 267Q5182 355 5182 462L5182 1114L5412 1114L5412 464Q5412 332 5432 270Q5453 208 5496 190Q5540 172 5610 172Q5651 172 5697 184Q5744 197 5785 214Q5826 232 5850 248L5850 1114L6080 1114L6080 -16L5974 -16Q5928 -16 5901 -3Q5874 11 5874 66L5874 144L5878 100Q5833 70 5772 43Q5712 17 5646 0Q5580 -16 5520 -16ZM6734 -16Q6655 -16 6595 9Q6535 34 6501 97Q6468 161 6468 278L6468 944L6324 944L6324 1068Q6398 1089 6437 1103Q6476 1118 6494 1166Q6502 1188 6512 1218Q6522 1249 6534 1286Q6546 1324 6560 1368L6698 1368L6698 1114L7010 1114L7010 944L6698 944L6698 400Q6698 292 6707 242Q6717 193 6743 179Q6770 166 6822 166Q6850 166 6886 172Q6923 179 6956 189Q6990 199 7008 210L7046 78Q7016 55 6965 33Q6915 12 6854 -2Q6794 -16 6734 -16ZM7582 -16Q7473 -16 7406 18Q7339 52 7304 115Q7269 179 7256 267Q7244 355 7244 462L7244 1114L7474 1114L7474 464Q7474 332 7494 270Q7515 208 7558 190Q7602 172 7672 172Q7713 172 7759 184Q7806 197 7847 214Q7888 232 7912 248L7912 1114L8142 1114L8142 -16L8036 -16Q7990 -16 7963 -3Q7936 11 7936 66L7936 144L7940 100Q7895 70 7834 43Q7774 17 7708 0Q7642 -16 7582 -16ZM8684 818L8670 970Q8685 1001 8733 1038Q8781 1076 8846 1103Q8912 1130 8980 1130Q9018 1130 9045 1127Q9073 1124 9086 1116L9086 900Q9071 908 9040 917Q9010 926 8942 926Q8880 926 8830 908Q8781 891 8744 866Q8707 841 8684 818ZM8696 0L8466 0L8466 1112L8662 1112L8678 970L8696 886L8696 0ZM9718 -16Q9478 -16 9348 136Q9218 288 9218 558Q9218 720 9275 848Q9333 976 9445 1051Q9558 1126 9722 1128Q9806 1130 9880 1104Q9954 1078 10011 1025Q10068 973 10101 893Q10135 813 10138 706Q10138 643 10137 593Q10136 544 10128 506L9352 506L9372 652L9922 652Q9927 732 9912 803Q9898 875 9850 919Q9803 964 9710 964Q9632 964 9570 920Q9508 877 9474 774Q9440 671 9446 492Q9452 366 9497 293Q9542 220 9615 189Q9688 158 9778 158Q9816 158 9871 166Q9926 175 9977 188Q10029 202 10056 218L10100 86Q10063 56 9999 33Q9936 10 9862 -3Q9788 -16 9718 -16Z"
                      style="" fill="#292929"></path>
            </g>
        </g>
    </g>
</svg>